<svg xmlns="http://www.w3.org/2000/svg" xmlns:xlink="http://www.w3.org/1999/xlink" width="375" zoomAndPan="magnify" viewBox="0 0 281.25 281.249989" height="375" preserveAspectRatio="xMidYMid meet" version="1.0"><defs><clipPath id="4061f99de8"><path d="M 33.851562 17.601562 L 200 17.601562 L 200 237 L 33.851562 237 Z M 33.851562 17.601562 " clip-rule="nonzero"/></clipPath><clipPath id="d12e07c2ef"><path d="M 81 43 L 246.285156 43 L 246.285156 262.949219 L 81 262.949219 Z M 81 43 " clip-rule="nonzero"/></clipPath></defs><g clip-path="url(#4061f99de8)"><path fill="#fe0089" d="M 123.773438 220.578125 C 123.777344 220.574219 123.78125 220.574219 123.78125 220.574219 L 199.625 176.097656 C 199.632812 176.089844 199.640625 176.082031 199.640625 176.070312 L 199.414062 116.660156 C 199.414062 116.632812 199.386719 116.621094 199.367188 116.632812 L 191.632812 121.148438 L 98.730469 175.425781 L 76.191406 188.59375 C 72.296875 190.867188 67.683594 188.824219 64.941406 185.644531 C 62.332031 182.617188 62.027344 179.015625 62.007812 175.21875 C 61.929688 160.671875 61.945312 146.117188 61.914062 131.566406 C 61.890625 120.546875 61.867188 109.523438 61.839844 98.5 C 61.835938 95.289062 63.398438 92.441406 65.800781 90.675781 C 65.800781 90.652344 65.800781 90.628906 65.800781 90.605469 L 66.855469 89.992188 L 85.191406 79.277344 L 92.757812 74.859375 L 147.378906 42.949219 L 165.367188 32.4375 L 139.621094 17.746094 L 33.851562 79.542969 L 34.480469 202.039062 L 95.710938 236.972656 L 123.773438 220.578125 " fill-opacity="1" fill-rule="nonzero"/></g><g clip-path="url(#d12e07c2ef)"><path fill="#00bf63" d="M 156.957031 59.78125 C 156.957031 59.78125 156.949219 59.785156 156.949219 59.785156 L 81.234375 104.019531 C 81.226562 104.023438 81.21875 104.035156 81.21875 104.046875 L 81.347656 163.097656 C 81.347656 163.121094 81.375 163.136719 81.394531 163.125 L 88.960938 158.703125 L 181.867188 104.429688 L 204.402344 91.261719 C 209.488281 88.289062 213.6875 91.269531 216.199219 95.582031 C 217.824219 98.375 218.742188 101.726562 218.734375 104.386719 C 218.6875 118.890625 218.84375 133.402344 218.898438 147.90625 C 218.941406 159.132812 218.984375 170.359375 219.027344 181.585938 C 219.039062 185.199219 217.066406 188.359375 214.136719 190.03125 C 214.101562 190.054688 214.066406 190.078125 214.027344 190.101562 L 212.613281 190.929688 C 212.613281 190.988281 212.613281 191.046875 212.613281 191.105469 L 193.246094 202.417969 L 185.511719 206.9375 L 115.132812 248.054688 L 140.878906 262.742188 L 246.652344 200.949219 L 246.023438 78.453125 L 184.792969 43.519531 L 156.957031 59.78125 " fill-opacity="1" fill-rule="nonzero"/></g></svg>